<svg xmlns="http://www.w3.org/2000/svg" viewBox="0 0 64 64">
  <!-- Left bat wing with scalloped edge -->
  <path d="M20 30 C18 24 10 20 4 24 C8 18 6 12 2 10 C8 12 12 10 14 6 C14 12 16 14 18 14 C16 10 18 4 20 2 C20 10 22 16 24 20 Z" fill="#cc0000"/>
  <!-- Right bat wing with scalloped edge (mirrored) -->
  <path d="M44 30 C46 24 54 20 60 24 C56 18 58 12 62 10 C56 12 52 10 50 6 C50 12 48 14 46 14 C48 10 46 4 44 2 C44 10 42 16 40 20 Z" fill="#cc0000"/>
  <!-- Heart shape -->
  <path d="M32 58 C32 58 14 42 14 32 C14 24 20 20 26 22 C29 23 31 26 32 28 C33 26 35 23 38 22 C44 20 50 24 50 32 C50 42 32 58 32 58 Z" fill="#cc0000" stroke="#8b0000" stroke-width="1"/>
  <!-- Heart shine -->
  <path d="M24 30 C22 28 22 24 26 24 C29 24 30 27 30 30" fill="none" stroke="#ff4444" stroke-width="2" stroke-linecap="round" opacity="0.5"/>
</svg>
