<svg xmlns="http://www.w3.org/2000/svg" viewBox="0 0 300 400">
  <rect width="300" height="400" fill="#1a1c17"/>
  <!-- TV static frame -->
  <rect x="60" y="30" width="180" height="140" rx="5" fill="#e8e0d0" opacity="0.08" stroke="#e8e0d0" stroke-width="2" opacity="0.3"/>
  <!-- Static lines in TV -->
  <line x1="65" y1="60" x2="235" y2="60" stroke="#e8e0d0" stroke-width="0.5" opacity="0.15"/>
  <line x1="65" y1="80" x2="235" y2="80" stroke="#e8e0d0" stroke-width="0.5" opacity="0.1"/>
  <line x1="65" y1="100" x2="235" y2="100" stroke="#e8e0d0" stroke-width="0.5" opacity="0.15"/>
  <line x1="65" y1="120" x2="235" y2="120" stroke="#e8e0d0" stroke-width="0.5" opacity="0.1"/>
  <line x1="65" y1="140" x2="235" y2="140" stroke="#e8e0d0" stroke-width="0.5" opacity="0.15"/>
  <!-- Long black hair covering face -->
  <path d="M110 80 Q100 90 95 120 Q88 160 85 200 Q80 250 85 310" stroke="#e8e0d0" stroke-width="3" fill="none" opacity="0.4"/>
  <path d="M120 75 Q112 95 108 130 Q102 170 100 220 Q97 270 100 320" stroke="#e8e0d0" stroke-width="3" fill="none" opacity="0.35"/>
  <path d="M130 72 Q125 100 122 140 Q118 185 120 240 Q118 290 120 330" stroke="#e8e0d0" stroke-width="3" fill="none" opacity="0.4"/>
  <path d="M140 70 Q138 105 136 150 Q134 200 135 260 Q134 300 136 335" stroke="#e8e0d0" stroke-width="3" fill="none" opacity="0.35"/>
  <path d="M150 68 Q150 110 150 160 Q150 210 150 270 Q150 310 150 338" stroke="#e8e0d0" stroke-width="3" fill="none" opacity="0.4"/>
  <path d="M160 70 Q162 105 164 150 Q166 200 165 260 Q166 300 164 335" stroke="#e8e0d0" stroke-width="3" fill="none" opacity="0.35"/>
  <path d="M170 72 Q175 100 178 140 Q182 185 180 240 Q182 290 180 330" stroke="#e8e0d0" stroke-width="3" fill="none" opacity="0.4"/>
  <path d="M180 75 Q188 95 192 130 Q198 170 200 220 Q203 270 200 320" stroke="#e8e0d0" stroke-width="3" fill="none" opacity="0.35"/>
  <path d="M190 80 Q200 90 205 120 Q212 160 215 200 Q220 250 215 310" stroke="#e8e0d0" stroke-width="3" fill="none" opacity="0.4"/>
  <!-- White dress underneath -->
  <path d="M110 170 Q100 230 95 340 L205 340 Q200 230 190 170 Z" fill="#e8e0d0" opacity="0.1"/>
  <!-- One eye peeking through hair -->
  <circle cx="155" cy="130" r="6" fill="#e8e0d0" opacity="0.7"/>
  <circle cx="155" cy="130" r="3" fill="#1a1c17"/>
  <circle cx="155" cy="130" r="1.5" fill="#cc0000"/>
  <!-- Hands reaching forward -->
  <path d="M120 280 Q100 285 85 275 L80 278 L82 282 L78 280" stroke="#e8e0d0" stroke-width="2" fill="none" opacity="0.4"/>
  <path d="M180 280 Q200 285 215 275 L220 278 L218 282 L222 280" stroke="#e8e0d0" stroke-width="2" fill="none" opacity="0.4"/>
  <!-- Water drip -->
  <path d="M150 340 Q148 350 150 355" stroke="#61dafb" stroke-width="1.5" fill="none" opacity="0.3"/>
  <circle cx="150" cy="358" r="2" fill="#61dafb" opacity="0.3"/>
  <text x="150" y="380" text-anchor="middle" fill="#e8e0d0" font-family="serif" font-size="18" letter-spacing="2">SADAKO</text>
</svg>